<?xml version="1.0"?>
<COLLADA xmlns="http://www.collada.org/2005/11/COLLADASchema" version="1.4.1">
  <asset>
    <contributor>
      <author>Assimp</author>
      <authoring_tool>Assimp Exporter</authoring_tool>
    </contributor>
    <created>2020-03-03T09:59:28</created>
    <modified>2020-03-03T09:59:28</modified>
    <unit name="meter" meter="0.01" />
    <up_axis>Y_UP</up_axis>
  </asset>
  <library_effects>
    <effect id="DefaultMaterial-fx" name="DefaultMaterial">
      <profile_COMMON>
        <technique sid="standard">
          <phong>
          </phong>
        </technique>
      </profile_COMMON>
    </effect>
  </library_effects>
  <library_materials>
    <material id="DefaultMaterial" name="DefaultMaterial">
      <instance_effect url="#DefaultMaterial-fx"/>
    </material>
  </library_materials>
  <library_geometries>
    <geometry id="meshId0" name="meshId0_name" >
      <mesh>
        <source id="meshId0-positions" name="meshId0-positions">
          <float_array id="meshId0-positions-array" count="1080"> -0.681818 -0.569697 1 -0.681818 -0.569697 0.848485 -0.606061 -0.569697 0.848485 -0.606061 -0.569697 1 0.606061 -0.569697 1 0.606061 -0.569697 0.848485 0.681818 -0.569697 0.848485 0.681818 -0.569697 1 -0.681818 -0.569697 -0.848485 -0.681818 -0.569697 -1 -0.606061 -0.569697 -1 -0.606061 -0.569697 -0.848485 0.606061 -0.569697 -0.848485 0.606061 -0.569697 -1 0.681818 -0.569697 -1 0.681818 -0.569697 -0.848485 -0.681818 0.569697 1 -0.606061 0.569697 1 -0.606061 0.569697 0.848485 -0.681818 0.569697 0.848485 0 0.569697 1 0 0.569697 0.848485 0.606061 0.569697 1 0.606061 0.569697 0.848485 0.681818 0.569697 1 0.681818 0.569697 0.848485 -0.681818 0.566667 0.848485 -0.606061 0.566667 0.848485 -0.606061 0.566667 6.95822e-17 -0.681818 0.566667 6.95822e-17 0 0.566667 0.848485 0 0.566667 6.95822e-17 0.606061 0.566667 0.848485 0.606061 0.566667 6.95822e-17 0.681818 0.566667 0.848485 0.681818 0.566667 6.95822e-17 -0.606061 0.566667 -0.848485 -0.681818 0.566667 -0.848485 0 0.566667 -0.848485 0.606061 0.566667 -0.848485 0.681818 0.566667 -0.848485 -0.681818 0.569697 -0.848485 -0.606061 0.569697 -0.848485 -0.606061 0.569697 -1 -0.681818 0.569697 -1 0 0.569697 -0.848485 0 0.569697 -1 0.606061 0.569697 -0.848485 0.606061 0.569697 -1 0.681818 0.569697 -0.848485 0.681818 0.569697 -1 -0.681818 -0.569697 1 -0.606061 -0.569697 1 -0.606061 0.415152 1 -0.681818 0.415152 1 0.606061 -0.569697 1 0.681818 -0.569697 1 0.681818 0.415152 1 0.606061 0.415152 1 -0.606061 0.566667 1 -0.681818 0.566667 1 0 0.415152 1 0 0.566667 1 0.606061 0.566667 1 0.681818 0.566667 1 0.684848 -0.569697 1 0.684848 -0.569697 0.848485 0.684848 0.415152 0.848485 0.684848 0.415152 1 0.684848 -0.569697 -0.848485 0.684848 -0.569697 -1 0.684848 0.415152 -1 0.684848 0.415152 -0.848485 0.684848 0.551515 0.848485 0.684848 0.566667 0.848485 0.684848 0.566667 1 0.681818 0.415152 6.03046e-17 0.681818 0.551515 6.86544e-17 0.681818 0.551515 0.848485 0.681818 0.415152 0.848485 0.681818 0.415152 -0.848485 0.681818 0.551515 -0.848485 0.684848 0.566667 -1 0.684848 0.566667 -0.848485 0.684848 0.551515 -0.848485 0.681818 -0.569697 -1 0.606061 -0.569697 -1 0.606061 0.415152 -1 0.681818 0.415152 -1 -0.606061 -0.569697 -1 -0.681818 -0.569697 -1 -0.681818 0.415152 -1 -0.606061 0.415152 -1 0.606061 0.566667 -1 0.681818 0.566667 -1 0 0.415152 -1 0 0.566667 -1 -0.606061 0.566667 -1 -0.681818 0.566667 -1 -0.684848 -0.569697 -1 -0.684848 -0.569697 -0.848485 -0.684848 0.415152 -0.848485 -0.684848 0.415152 -1 -0.684848 -0.569697 0.848485 -0.684848 -0.569697 1 -0.684848 0.415152 1 -0.684848 0.415152 0.848485 -0.684848 0.551515 -0.848485 -0.684848 0.566667 -0.848485 -0.684848 0.566667 -1 -0.681818 0.415152 6.03046e-17 -0.681818 0.551515 6.86544e-17 -0.681818 0.551515 -0.848485 -0.681818 0.415152 -0.848485 -0.681818 0.415152 0.848485 -0.681818 0.551515 0.848485 -0.684848 0.566667 1 -0.684848 0.566667 0.848485 -0.684848 0.551515 0.848485 -0.681818 -0.569697 -0.848485 -0.606061 -0.569697 -0.848485 -0.606061 0.415152 -0.848485 -0.681818 0.415152 -0.848485 -0.606061 -0.569697 -0.848485 -0.606061 -0.569697 -1 -0.606061 0.415152 -1 -0.606061 0.415152 -0.848485 -0.606061 -0.569697 0.848485 -0.681818 -0.569697 0.848485 -0.681818 0.415152 0.848485 -0.606061 0.415152 0.848485 -0.606061 -0.569697 1 -0.606061 -0.569697 0.848485 -0.606061 0.415152 0.848485 -0.606061 0.415152 1 0.606061 -0.569697 0.848485 0.606061 -0.569697 1 0.606061 0.415152 1 0.606061 0.415152 0.848485 0.681818 -0.569697 0.848485 0.606061 -0.569697 0.848485 0.606061 0.415152 0.848485 0.681818 0.415152 0.848485 0.606061 -0.569697 -0.848485 0.681818 -0.569697 -0.848485 0.681818 0.415152 -0.848485 0.606061 0.415152 -0.848485 0.606061 -0.569697 -1 0.606061 -0.569697 -0.848485 0.606061 0.415152 -0.848485 0.606061 0.415152 -1 0 0.415152 -1 0.606061 0.415152 -1 0.606061 0.415152 -0.848485 0 0.415152 -0.848485 -0.606061 0.415152 -1 -0.606061 0.415152 -0.848485 0 0.415152 1 -0.606061 0.415152 1 -0.606061 0.415152 0.848485 0 0.415152 0.848485 0.606061 0.415152 1 0.606061 0.415152 0.848485 -0.681818 0.415152 6.03046e-17 -0.681818 0.415152 -0.848485 -0.606061 0.415152 6.03046e-17 -0.681818 0.415152 0.848485 0.681818 0.415152 6.03046e-17 0.681818 0.415152 0.848485 0.606061 0.415152 6.03046e-17 0.681818 0.415152 -0.848485 0 0.415152 6.03046e-17 -0.606061 0.569697 1 -0.681818 0.569697 1 0 0.569697 1 0.606061 0.569697 1 0.681818 0.569697 1 0.681818 0.566667 1 0.681818 0.566667 0.848485 0.681818 0.569697 0.848485 0.681818 0.569697 1 0.681818 0.566667 0.848485 0.606061 0.566667 0.848485 0.606061 0.569697 0.848485 0.681818 0.569697 0.848485 0 0.566667 0.848485 0 0.569697 0.848485 -0.606061 0.566667 0.848485 -0.606061 0.569697 0.848485 -0.681818 0.566667 0.848485 -0.681818 0.569697 0.848485 -0.681818 0.566667 0.848485 -0.681818 0.566667 1 -0.681818 0.569697 1 -0.681818 0.569697 0.848485 -0.681818 0.566667 -0.848485 -0.606061 0.566667 -0.848485 -0.606061 0.569697 -0.848485 -0.681818 0.569697 -0.848485 0 0.566667 -0.848485 0 0.569697 -0.848485 0.606061 0.566667 -0.848485 0.606061 0.569697 -0.848485 0.681818 0.566667 -0.848485 0.681818 0.569697 -0.848485 0.681818 0.566667 -0.848485 0.681818 0.566667 -1 0.681818 0.569697 -1 0.681818 0.569697 -0.848485 0.606061 0.569697 -1 0.681818 0.569697 -1 0 0.569697 -1 -0.606061 0.569697 -1 -0.681818 0.569697 -1 -0.681818 0.566667 -1 -0.681818 0.566667 -0.848485 -0.681818 0.569697 -0.848485 -0.681818 0.569697 -1 -0.684848 0.566667 6.95822e-17 -0.684848 0.566667 -0.848485 -0.684848 0.551515 -0.848485 -0.684848 0.551515 6.86544e-17 -0.684848 0.566667 0.848485 -0.684848 0.551515 0.848485 0.684848 0.566667 6.95822e-17 0.684848 0.566667 0.848485 0.684848 0.551515 0.848485 0.684848 0.551515 6.86544e-17 0.684848 0.566667 -0.848485 0.684848 0.551515 -0.848485 -0.684848 0.566667 6.95822e-17 -0.684848 0.566667 0.848485 -0.684848 0.566667 -0.848485 -0.681818 0.566667 -0.848485 -0.681818 0.551515 -0.848485 -0.684848 0.551515 -0.848485 -0.684848 0.566667 -0.848485 -0.681818 0.551515 -0.848485 -0.681818 0.551515 6.86544e-17 -0.684848 0.551515 6.86544e-17 -0.684848 0.551515 -0.848485 -0.681818 0.551515 0.848485 -0.684848 0.551515 0.848485 -0.681818 0.551515 0.848485 -0.681818 0.566667 0.848485 -0.684848 0.566667 0.848485 -0.684848 0.551515 0.848485 0.684848 0.566667 0.848485 0.684848 0.566667 6.95822e-17 0.681818 0.566667 0.848485 0.681818 0.551515 0.848485 0.684848 0.551515 0.848485 0.684848 0.566667 0.848485 0.681818 0.551515 0.848485 0.681818 0.551515 6.86544e-17 0.684848 0.551515 6.86544e-17 0.684848 0.551515 0.848485 0.681818 0.551515 -0.848485 0.684848 0.551515 -0.848485 0.681818 0.551515 -0.848485 0.681818 0.566667 -0.848485 0.684848 0.566667 -0.848485 0.684848 0.551515 -0.848485 0.684848 0.566667 -0.848485 0.684848 -0.569697 0.848485 0.684848 -0.569697 1 0.684848 0.415152 0.848485 0.684848 -0.569697 0.848485 0.681818 0.551515 0.848485 0.684848 0.551515 0.848485 0.681818 0.566667 0.848485 0.684848 0.566667 0.848485 0.681818 0.569697 0.848485 0.681818 0.569697 1 0.684848 0.569697 1 0.684848 0.569697 0.848485 0.684848 0.415152 1 0.684848 0.566667 1 0.684848 -0.569697 1 0.684848 -0.569697 -1 0.684848 -0.569697 -0.848485 0.684848 0.415152 -1 0.684848 -0.569697 -1 0.684848 0.566667 -1 0.681818 0.569697 -1 0.681818 0.569697 -0.848485 0.684848 0.569697 -0.848485 0.684848 0.569697 -1 0.681818 0.566667 -0.848485 0.681818 0.551515 -0.848485 0.684848 0.551515 -0.848485 0.684848 0.566667 -0.848485 0.684848 0.415152 -0.848485 0.684848 -0.569697 -0.848485 -0.684848 -0.569697 -0.848485 -0.684848 -0.569697 -1 -0.684848 0.415152 -0.848485 -0.684848 -0.569697 -0.848485 -0.681818 0.551515 -0.848485 -0.684848 0.551515 -0.848485 -0.681818 0.566667 -0.848485 -0.684848 0.566667 -0.848485 -0.681818 0.569697 -0.848485 -0.681818 0.569697 -1 -0.684848 0.569697 -1 -0.684848 0.569697 -0.848485 -0.684848 0.415152 -1 -0.684848 0.566667 -1 -0.684848 -0.569697 -1 -0.684848 -0.569697 1 -0.684848 -0.569697 0.848485 -0.684848 0.415152 1 -0.684848 -0.569697 1 -0.684848 0.566667 1 -0.681818 0.569697 1 -0.681818 0.569697 0.848485 -0.684848 0.569697 0.848485 -0.684848 0.569697 1 -0.681818 0.566667 0.848485 -0.681818 0.551515 0.848485 -0.684848 0.551515 0.848485 -0.684848 0.566667 0.848485 -0.684848 0.415152 0.848485 -0.684848 -0.569697 0.848485 -0.681818 0.566667 -0.848485 -0.681818 0.566667 -1 -0.681818 0.569697 -1 -0.681818 0.569697 -0.848485 -0.684848 0.569697 -1 -0.684848 0.569697 -0.848485 -0.684848 0.569697 -1 -0.681818 0.569697 -0.848485 -0.684848 0.569697 -0.848485 0.681818 0.566667 0.848485 0.681818 0.566667 1 0.681818 0.569697 1 0.681818 0.569697 0.848485 0.684848 0.569697 1 0.684848 0.569697 0.848485 0.684848 0.569697 1 0.681818 0.569697 0.848485 0.684848 0.569697 0.848485 0.681818 0.566667 -1 0.681818 0.566667 -0.848485 0.681818 0.569697 -0.848485 0.681818 0.569697 -1 0.684848 0.569697 -0.848485 0.681818 0.569697 -0.848485 0.684848 0.569697 -1 0.684848 0.569697 -0.848485 0.684848 0.569697 -1 -0.681818 0.566667 1 -0.681818 0.566667 0.848485 -0.681818 0.569697 0.848485 -0.681818 0.569697 1 -0.684848 0.569697 0.848485 -0.681818 0.569697 0.848485 -0.684848 0.569697 1 -0.684848 0.569697 0.848485 -0.684848 0.569697 1 </float_array>
          <technique_common>
            <accessor count="360" offset="0" source="#meshId0-positions-array" stride="3">
              <param name="X" type="float" />
              <param name="Y" type="float" />
              <param name="Z" type="float" />
            </accessor>
          </technique_common>
        </source>
        <source id="meshId0-normals" name="meshId0-normals">
          <float_array id="meshId0-normals-array" count="1080"> 0 -1 -6.12323e-17 0 -1 -6.12323e-17 0 -1 -6.12323e-17 0 -1 -6.12323e-17 0 -1 -6.12323e-17 0 -1 -6.12323e-17 0 -1 -6.12323e-17 0 -1 -6.12323e-17 0 -1 -6.12323e-17 0 -1 -6.12323e-17 0 -1 -6.12323e-17 0 -1 -6.12323e-17 0 -1 -6.12323e-17 0 -1 -6.12323e-17 0 -1 -6.12323e-17 0 -1 -6.12323e-17 0 1 6.12323e-17 0 1 6.12323e-17 0 1 6.12323e-17 0 1 6.12323e-17 0 1 6.12323e-17 0 1 6.12323e-17 0 1 6.12323e-17 0 1 6.12323e-17 0 1 6.12323e-17 0 1 6.12323e-17 0 1 6.12323e-17 0 1 6.12323e-17 0 1 6.12323e-17 0 1 6.12323e-17 0 1 6.12323e-17 0 1 6.12323e-17 0 1 6.12323e-17 0 1 6.12323e-17 0 1 6.12323e-17 0 1 6.12323e-17 0 1 6.12323e-17 0 1 6.12323e-17 0 1 6.12323e-17 0 1 6.12323e-17 0 1 6.12323e-17 0 1 6.12323e-17 0 1 6.12323e-17 0 1 6.12323e-17 0 1 6.12323e-17 0 1 6.12323e-17 0 1 6.12323e-17 0 1 6.12323e-17 0 1 6.12323e-17 0 1 6.12323e-17 0 1 6.12323e-17 0 -6.12323e-17 1 0 -6.12323e-17 1 0 -6.12323e-17 1 0 -6.12323e-17 1 0 -6.12323e-17 1 0 -6.12323e-17 1 0 -6.12323e-17 1 0 -6.12323e-17 1 0 -6.12323e-17 1 0 -6.12323e-17 1 0 -6.12323e-17 1 0 -6.12323e-17 1 0 -6.12323e-17 1 0 -6.12323e-17 1 1 0 0 1 0 0 1 0 0 1 0 0 1 0 0 1 0 0 1 0 0 1 0 0 1 0 0 1 0 0 1 0 0 1 0 0 1 0 0 1 0 0 1 0 0 1 0 0 1 0 0 1 0 0 1 0 0 1 0 0 0 6.12323e-17 -1 0 6.12323e-17 -1 0 6.12323e-17 -1 0 6.12323e-17 -1 0 6.12323e-17 -1 0 6.12323e-17 -1 0 6.12323e-17 -1 0 6.12323e-17 -1 0 6.12323e-17 -1 0 6.12323e-17 -1 0 6.12323e-17 -1 0 6.12323e-17 -1 0 6.12323e-17 -1 0 6.12323e-17 -1 -1 0 0 -1 0 0 -1 0 0 -1 0 0 -1 0 0 -1 0 0 -1 0 0 -1 0 0 -1 0 0 -1 0 0 -1 0 0 -1 0 0 -1 0 0 -1 0 0 -1 0 0 -1 0 0 -1 0 0 -1 0 0 -1 0 0 -1 0 0 0 -6.12323e-17 1 0 -6.12323e-17 1 0 -6.12323e-17 1 0 -6.12323e-17 1 1 0 0 1 0 0 1 0 0 1 0 0 0 6.12323e-17 -1 0 6.12323e-17 -1 0 6.12323e-17 -1 0 6.12323e-17 -1 1 0 0 1 0 0 1 0 0 1 0 0 -1 0 0 -1 0 0 -1 0 0 -1 0 0 0 6.12323e-17 -1 0 6.12323e-17 -1 0 6.12323e-17 -1 0 6.12323e-17 -1 0 -6.12323e-17 1 0 -6.12323e-17 1 0 -6.12323e-17 1 0 -6.12323e-17 1 -1 0 0 -1 0 0 -1 0 0 -1 0 0 0 -1 -6.12323e-17 0 -1 -6.12323e-17 0 -1 -6.12323e-17 0 -1 -6.12323e-17 0 -1 -6.12323e-17 0 -1 -6.12323e-17 0 -1 -6.12323e-17 0 -1 -6.12323e-17 0 -1 -6.12323e-17 0 -1 -6.12323e-17 0 -1 -6.12323e-17 0 -1 -6.12323e-17 0 -1 -6.12323e-17 0 -1 -6.12323e-17 0 -1 -6.12323e-17 0 -1 -6.12323e-17 0 -1 -6.12323e-17 0 -1 -6.12323e-17 0 -1 -6.12323e-17 0 -1 -6.12323e-17 0 -1 -6.12323e-17 0 -6.12323e-17 1 0 -6.12323e-17 1 0 -6.12323e-17 1 0 -6.12323e-17 1 0 -6.12323e-17 1 1 0 0 1 0 0 1 0 0 1 0 0 0 6.12323e-17 -1 0 6.12323e-17 -1 0 6.12323e-17 -1 0 6.12323e-17 -1 0 6.12323e-17 -1 0 6.12323e-17 -1 0 6.12323e-17 -1 0 6.12323e-17 -1 0 6.12323e-17 -1 0 6.12323e-17 -1 -1 0 0 -1 0 0 -1 0 0 -1 0 0 0 -6.12323e-17 1 0 -6.12323e-17 1 0 -6.12323e-17 1 0 -6.12323e-17 1 0 -6.12323e-17 1 0 -6.12323e-17 1 0 -6.12323e-17 1 0 -6.12323e-17 1 0 -6.12323e-17 1 0 -6.12323e-17 1 1 0 0 1 0 0 1 0 0 1 0 0 0 6.12323e-17 -1 0 6.12323e-17 -1 0 6.12323e-17 -1 0 6.12323e-17 -1 0 6.12323e-17 -1 -1 0 0 -1 0 0 -1 0 0 -1 0 0 -1 0 0 -1 0 0 -1 0 0 -1 0 0 -1 0 0 -1 0 0 1 0 0 1 0 0 1 0 0 1 0 0 1 0 0 1 0 0 0 1 6.12323e-17 0 1 6.12323e-17 0 1 6.12323e-17 0 6.12323e-17 -1 0 6.12323e-17 -1 0 6.12323e-17 -1 0 6.12323e-17 -1 0 -1 -6.12323e-17 0 -1 -6.12323e-17 0 -1 -6.12323e-17 0 -1 -6.12323e-17 0 -1 -6.12323e-17 0 -1 -6.12323e-17 0 -6.12323e-17 1 0 -6.12323e-17 1 0 -6.12323e-17 1 0 -6.12323e-17 1 0 1 6.12323e-17 0 1 6.12323e-17 0 -6.12323e-17 1 0 -6.12323e-17 1 0 -6.12323e-17 1 0 -6.12323e-17 1 0 -1 -6.12323e-17 0 -1 -6.12323e-17 0 -1 -6.12323e-17 0 -1 -6.12323e-17 0 -1 -6.12323e-17 0 -1 -6.12323e-17 0 6.12323e-17 -1 0 6.12323e-17 -1 0 6.12323e-17 -1 0 6.12323e-17 -1 0 1 6.12323e-17 0 -1 -6.12323e-17 0 -1 -6.12323e-17 0 6.12323e-17 -1 0 6.12323e-17 -1 0 6.12323e-17 -1 0 6.12323e-17 -1 0 6.12323e-17 -1 0 6.12323e-17 -1 0 1 6.12323e-17 0 1 6.12323e-17 0 1 6.12323e-17 0 1 6.12323e-17 0 -6.12323e-17 1 0 -6.12323e-17 1 0 -6.12323e-17 1 0 -1 -6.12323e-17 0 -1 -6.12323e-17 0 6.12323e-17 -1 0 6.12323e-17 -1 0 6.12323e-17 -1 0 1 6.12323e-17 0 1 6.12323e-17 0 1 6.12323e-17 0 1 6.12323e-17 0 -6.12323e-17 1 0 -6.12323e-17 1 0 -6.12323e-17 1 0 -6.12323e-17 1 0 -6.12323e-17 1 0 -6.12323e-17 1 0 -1 -6.12323e-17 0 -1 -6.12323e-17 0 -6.12323e-17 1 0 -6.12323e-17 1 0 -6.12323e-17 1 0 -6.12323e-17 1 0 -6.12323e-17 1 0 -6.12323e-17 1 0 1 6.12323e-17 0 1 6.12323e-17 0 1 6.12323e-17 0 1 6.12323e-17 0 6.12323e-17 -1 0 6.12323e-17 -1 0 6.12323e-17 -1 0 -1 -6.12323e-17 0 -1 -6.12323e-17 0 -6.12323e-17 1 0 -6.12323e-17 1 0 -6.12323e-17 1 0 1 6.12323e-17 0 1 6.12323e-17 0 1 6.12323e-17 0 1 6.12323e-17 0 6.12323e-17 -1 0 6.12323e-17 -1 0 6.12323e-17 -1 0 6.12323e-17 -1 0 6.12323e-17 -1 0 6.12323e-17 -1 1 0 0 1 0 0 1 0 0 1 0 0 0 6.12323e-17 -1 -1 0 0 -1 0 0 0 -6.12323e-17 1 0 -6.12323e-17 1 -1 0 0 -1 0 0 -1 0 0 -1 0 0 0 -6.12323e-17 1 1 0 0 1 0 0 0 6.12323e-17 -1 0 6.12323e-17 -1 -1 0 0 -1 0 0 -1 0 0 -1 0 0 0 -6.12323e-17 1 0 -6.12323e-17 1 1 0 0 1 0 0 0 6.12323e-17 -1 1 0 0 1 0 0 1 0 0 1 0 0 0 6.12323e-17 -1 0 6.12323e-17 -1 -1 0 0 -1 0 0 0 -6.12323e-17 1 </float_array>
          <technique_common>
            <accessor count="360" offset="0" source="#meshId0-normals-array" stride="3">
              <param name="X" type="float" />
              <param name="Y" type="float" />
              <param name="Z" type="float" />
            </accessor>
          </technique_common>
        </source>
        <source id="meshId0-tangents" name="meshId0-tangents">
          <float_array id="meshId0-tangents-array" count="1080"> -1 0 0 -1 0 0 -1 0 0 -1 0 0 1 0 0 1 0 0 1 0 0 1 0 0 -1 0 0 -1 0 0 -1 0 0 -1 0 0 0 -6.12323e-17 1 0 -6.12323e-17 1 1.0021e-06 -6.12323e-17 1 0 -6.12323e-17 1 1 0 0 1 0 0 1 0 0 1 0 0 1 0 0 1 0 0 1 0 0 1 0 0 1 0 0 1 0 0 1 0 0 1 0 0 1 0 0 1 0 0 1 0 0 1 0 0 1 0 0 1 0 0 1 0 0 1 0 0 1 0 0 1 0 0 1 0 0 1 0 0 1 0 0 0 -6.12323e-17 1 0 -6.12323e-17 1 0 -6.12323e-17 1 0 -6.12323e-17 1 0 -6.12323e-17 1 0 -6.12323e-17 1 0 -6.12323e-17 1 0 -6.12323e-17 1 0 -6.12323e-17 1 0 -6.12323e-17 1 0 -1 -6.12323e-17 0 -1 -6.12323e-17 0 -1 -6.12323e-17 0 -1 -6.12323e-17 0 -1 -6.12323e-17 0 -1 -6.12323e-17 0 -1 -6.12323e-17 0 -1 -6.12323e-17 0 -1 -6.12323e-17 0 -1 -6.12323e-17 0 -1 -6.12323e-17 0 -1 -6.12323e-17 0 -1 -6.12323e-17 0 -1 -6.12323e-17 0 -1 0 0 -1 0 0 -1 0 0 -1 0 0 -1 0 0 -1 0 0 -1 0 0 -1 0 0 -1 0 0 -1 0 0 -1 0 0 -1 0 0 -1 0 0 -1 0 0 -1 0 0 -1 0 0 -1 0 0 -1 0 0 -1 0 0 -1 0 1 0 0 1 0 0 1 0 0 1 0 0 1 8.24202e-06 5.04678e-22 1 3.91956e-06 2.40004e-22 1 5.97108e-07 3.65623e-23 1 1.86859e-07 1.14418e-23 1 0 0 1 0 0 1 5.05737e-07 3.09675e-23 1 2.13432e-07 1.30689e-23 1 3.45496e-06 2.11555e-22 1 2.07459e-06 1.27032e-22 0 0 1 0 0 1 0 -1.05361e-06 1 0 0 1 0 -1 0 0 -1 0 0 -1 0 0 -1 0 0 -2.24093e-06 1 0 0 1 0 -9.19908e-07 1 0 -1 0 0 -1 0 0 -1 0 0 -1 0 0 -1 0 0 -1 0 0 -1 0 0 -1 0 0 -1 0 -1 0 0 -1 0 0 -1 0 0 -1 0 0 0 0 -1 0 0 -1 0 0 -1 0 0 -1 4.16265e-07 -1 -6.12323e-17 1.97958e-07 -1 -6.12323e-17 0 -1 -6.12323e-17 2.0345e-08 -1 -6.12323e-17 0 0 -1 0 0 -1 0 0 -1 0 0 -1 0 0 1 0 0 1 0 0 1 0 0 1 -1 0 0 -1 0 0 -1 0 0 -1 0 0 1 0 0 1 0 0 1 0 0 1 0 0 0 0 1 0 0 1 0 0 1 0 0 1 1 0 0 1 0 0 1 0 0 1 0 0 1 0 0 1 0 0 1 0 0 1 0 0 1 0 0 1 0 0 1 0 0 1 0 0 1 0 0 1 0 0 1 0 0 1 0 0 1 0 0 1 0 0 1 0 0 1 0 0 1 0 0 0 -1 -6.12323e-17 0 -1 -6.12323e-17 0 -1 -6.12323e-17 0 -1 -6.12323e-17 0 -1 -6.12323e-17 0 0 1 0 0 1 0 0 1 0 0 1 0 -1 -6.12323e-17 0 -1 -6.12323e-17 0 -1 -6.12323e-17 0 -1 -6.12323e-17 0 -1 -6.12323e-17 0 -1 -6.12323e-17 0 -1 -6.12323e-17 0 -1 -6.12323e-17 0 -1 -6.12323e-17 0 -1 -6.12323e-17 0 0 -1 0 0 -1 0 0 -1 0 0 -1 0 -1 -6.12323e-17 0 -1 -6.12323e-17 0 -1 -6.12323e-17 0 -1 -6.12323e-17 0 -1 -6.12323e-17 0 -1 -6.12323e-17 0 -1 -6.12323e-17 0 -1 -6.12323e-17 0 -1 -6.12323e-17 0 -1 -6.12323e-17 0 -1 0 0 -1 0 0 -1 0 0 -1 0 1 0 0 1 0 0 1 0 0 1 3.95494e-06 2.4217e-22 1 0 0 0 -1 0 0 -1 0 0 -1 0 0 -1 0 0 -1 -6.08842e-17 0 -1 -6.96247e-19 0 -1 0 0 -1 -6.08842e-17 0 -1 0 0 -1 -6.96247e-19 0 -1 -6.08842e-17 0 -1 -6.96247e-19 0 -1 0 0 -1 -6.08842e-17 0 -1 0 0 -1 -6.96247e-19 1 0 0 1 0 0 1 0 0 -1 0 0 -1 0 0 -1 0 0 -1 0 0 1 0 0 1 0 0 1 0 0 1 0 0 1 0 0 1 0 0 -1 0 0 -1 0 0 -1 0 0 -1 0 0 1 0 0 1 0 0 1 0 0 1 0 0 1 0 0 1 0 0 1 0 0 1 0 0 1 0 0 1 0 0 1 0 0 1 0 0 -1 0 0 -1 0 0 -1 0 0 -1 0 0 1 0 0 1 0 0 1 0 0 -1 0 0 -1 0 0 -1 0 0 -1 0 0 -1 0 0 -1 0 0 0 6.12323e-17 -1 0 6.12323e-17 -1 0 6.12323e-17 -1 0 6.12323e-17 -1 0 -1 -6.12323e-17 0 -1 -6.12323e-17 0 -1 -6.12323e-17 2.03003e-06 -6.12323e-17 1 2.58383e-08 -6.12323e-17 1 1 0 0 1 0 0 1 0 0 2.0301e-06 6.12323e-17 -1 1.36094e-06 6.12323e-17 -1 1.35231e-06 6.12323e-17 -1 2.02147e-06 6.12323e-17 -1 1 0 0 1 0 0 1 0 0 1 0 0 1 0 0 1 0 0 -1 0 0 -1 0 0 -1 0 0 -1 0 0 -1 0 0 -1 0 0 -1 0 0 -1 0 0 -1 0 0 -1 0 0 -1 0 0 -1 0 0 1 0 0 1 0 0 1 0 0 -1 0 0 -1 0 0 0 -1 -6.12323e-17 0 -1 -6.12323e-17 0 -1 -6.12323e-17 -1 0 0 -1 0 0 -1 0 0 -1 0 0 0 -1 -6.12323e-17 0 -1 -6.12323e-17 0 -1 -6.12323e-17 0 -1 -6.12323e-17 0 -1 -6.12323e-17 0 -1 -6.12323e-17 0 0 1 0 0 1 0 0 1 0 0 1 1 0 0 0 0 1 0 0 1 -1 0 0 -1 0 0 0 -1 0 0 -1 0 0 -1 0 0 -1 0 0 -1 -6.12323e-17 0 -1 0 0 -1 0 -1 0 0 -1 0 0 0 1 0 0 1 0 0 1 0 0 1 0 1 0 0 1 0 0 0 -1 0 0 -1 0 1 0 0 0 -1 0 0 -1 0 0 -1 0 0 -1 0 0 -1 -6.12323e-17 0 -1 -6.12323e-17 0 -1 0 0 -1 0 0 -1 -6.12323e-17 </float_array>
          <technique_common>
            <accessor count="360" offset="0" source="#meshId0-tangents-array" stride="3">
              <param name="X" type="float" />
              <param name="Y" type="float" />
              <param name="Z" type="float" />
            </accessor>
          </technique_common>
        </source>
        <source id="meshId0-bitangents" name="meshId0-bitangents">
          <float_array id="meshId0-bitangents-array" count="1080"> 0 6.12323e-17 -1 0 6.12323e-17 -1 0 6.12323e-17 -1 0 6.12323e-17 -1 0 -6.12323e-17 1 0 -6.12323e-17 1 0 -6.12323e-17 1 0 -6.12323e-17 1 0 6.12323e-17 -1 0 6.12323e-17 -1 0 6.12323e-17 -1 0 6.12323e-17 -1 -1 -0 0 -1 -0 0 -1 -6.13607e-23 1.0021e-06 -1 -0 0 0 6.12323e-17 -1 0 6.12323e-17 -1 0 6.12323e-17 -1 0 6.12323e-17 -1 0 6.12323e-17 -1 0 6.12323e-17 -1 0 6.12323e-17 -1 0 6.12323e-17 -1 0 6.12323e-17 -1 0 6.12323e-17 -1 0 6.12323e-17 -1 0 6.12323e-17 -1 0 6.12323e-17 -1 0 6.12323e-17 -1 0 6.12323e-17 -1 0 6.12323e-17 -1 0 6.12323e-17 -1 0 6.12323e-17 -1 0 6.12323e-17 -1 0 6.12323e-17 -1 0 6.12323e-17 -1 0 6.12323e-17 -1 0 6.12323e-17 -1 0 6.12323e-17 -1 0 6.12323e-17 -1 1 0 -0 1 0 -0 1 0 -0 1 0 -0 1 0 -0 1 0 -0 1 0 -0 1 0 -0 1 0 -0 1 0 -0 1 0 0 1 0 0 1 0 0 1 0 0 1 0 0 1 0 0 1 0 0 1 0 0 1 0 0 1 0 0 1 0 0 1 0 0 1 0 0 1 0 0 0 0 -1 0 0 -1 0 0 -1 0 0 -1 0 0 -1 0 0 -1 0 0 -1 0 0 -1 0 0 -1 0 0 -1 0 0 -1 0 0 -1 0 0 -1 0 0 -1 0 0 -1 0 0 -1 0 0 -1 0 0 -1 0 0 -1 0 0 -1 0 -1 -6.12323e-17 0 -1 -6.12323e-17 0 -1 -6.12323e-17 0 -1 -6.12323e-17 8.24202e-06 -1 -6.12323e-17 3.91956e-06 -1 -6.12323e-17 5.97108e-07 -1 -6.12323e-17 1.86859e-07 -1 -6.12323e-17 0 -1 -6.12323e-17 0 -1 -6.12323e-17 5.05737e-07 -1 -6.12323e-17 2.13432e-07 -1 -6.12323e-17 3.45496e-06 -1 -6.12323e-17 2.07459e-06 -1 -6.12323e-17 0 1 -0 0 1 -0 0 1 1.05361e-06 0 1 -0 0 0 1 0 0 1 0 0 1 0 0 1 0 1 2.24093e-06 0 1 -0 0 1 9.19908e-07 0 0 1 0 0 1 0 0 1 0 0 1 0 0 1 0 0 1 0 0 1 0 0 1 0 0 1 -0 -1 -6.12323e-17 -0 -1 -6.12323e-17 -0 -1 -6.12323e-17 -0 -1 -6.12323e-17 -0 1 0 -0 1 0 -0 1 0 -0 1 0 -1 -4.16265e-07 -2.54889e-23 -1 -1.97958e-07 -1.21214e-23 -1 0 -0 -1 -2.0345e-08 -1.24577e-24 -0 1 0 -0 1 0 -0 1 0 -0 1 0 0 1 -0 0 1 -0 0 1 -0 0 1 -0 0 1 6.12323e-17 0 1 6.12323e-17 0 1 6.12323e-17 0 1 6.12323e-17 -0 1 6.12323e-17 -0 1 6.12323e-17 -0 1 6.12323e-17 -0 1 6.12323e-17 0 1 -0 0 1 -0 0 1 -0 0 1 -0 0 -6.12323e-17 1 0 -6.12323e-17 1 0 -6.12323e-17 1 0 -6.12323e-17 1 0 -6.12323e-17 1 0 -6.12323e-17 1 0 -6.12323e-17 1 0 -6.12323e-17 1 0 -6.12323e-17 1 0 -6.12323e-17 1 0 -6.12323e-17 1 0 -6.12323e-17 1 0 -6.12323e-17 1 0 -6.12323e-17 1 0 -6.12323e-17 1 0 -6.12323e-17 1 0 -6.12323e-17 1 0 -6.12323e-17 1 0 -6.12323e-17 1 0 -6.12323e-17 1 0 -6.12323e-17 1 1 0 0 1 0 0 1 0 0 1 0 0 1 0 0 0 -1 0 0 -1 0 0 -1 0 0 -1 0 -1 0 -0 -1 0 -0 -1 0 -0 -1 0 -0 -1 0 -0 -1 0 -0 -1 0 -0 -1 0 -0 -1 0 -0 -1 0 -0 -0 -1 -0 -0 -1 -0 -0 -1 -0 -0 -1 -0 1 0 0 1 0 0 1 0 0 1 0 0 1 0 0 1 0 0 1 0 0 1 0 0 1 0 0 1 0 0 0 0 -1 0 0 -1 0 0 -1 0 0 -1 0 -1 -6.12323e-17 0 -1 -6.12323e-17 0 -1 -6.12323e-17 3.95494e-06 -1 -6.12323e-17 0 -1 -6.12323e-17 0 0 1 0 0 1 0 0 1 0 0 1 0 -6.08842e-17 1 0 -6.96247e-19 1 0 0 1 0 -6.08842e-17 1 0 0 1 0 -6.96247e-19 1 0 6.08842e-17 -1 0 6.96247e-19 -1 0 0 -1 0 6.08842e-17 -1 0 0 -1 0 6.96247e-19 -1 0 6.12323e-17 -1 0 6.12323e-17 -1 0 6.12323e-17 -1 0 1 6.12323e-17 0 1 6.12323e-17 0 1 6.12323e-17 0 1 6.12323e-17 0 -6.12323e-17 1 0 -6.12323e-17 1 0 -6.12323e-17 1 0 -6.12323e-17 1 0 -6.12323e-17 1 0 -6.12323e-17 1 -0 -1 -6.12323e-17 -0 -1 -6.12323e-17 -0 -1 -6.12323e-17 -0 -1 -6.12323e-17 0 6.12323e-17 -1 0 6.12323e-17 -1 -0 1 6.12323e-17 -0 1 6.12323e-17 -0 1 6.12323e-17 -0 1 6.12323e-17 0 -6.12323e-17 1 0 -6.12323e-17 1 0 -6.12323e-17 1 0 -6.12323e-17 1 0 -6.12323e-17 1 0 -6.12323e-17 1 0 1 6.12323e-17 0 1 6.12323e-17 0 1 6.12323e-17 0 1 6.12323e-17 0 6.12323e-17 -1 0 -6.12323e-17 1 0 -6.12323e-17 1 0 1 6.12323e-17 0 1 6.12323e-17 0 1 6.12323e-17 0 1 6.12323e-17 0 1 6.12323e-17 0 1 6.12323e-17 -1 0 0 -1 0 0 -1 0 0 -1 0 0 1 0 0 1 0 0 1 0 0 -1 -1.24304e-22 2.03003e-06 -1 -1.58214e-24 2.58383e-08 0 -1 -6.12323e-17 0 -1 -6.12323e-17 0 -1 -6.12323e-17 -1 1.24308e-22 -2.0301e-06 -1 8.33334e-23 -1.36094e-06 -1 8.28052e-23 -1.35231e-06 -1 1.2378e-22 -2.02147e-06 -0 1 6.12323e-17 -0 1 6.12323e-17 -0 1 6.12323e-17 -0 1 6.12323e-17 -0 1 6.12323e-17 -0 1 6.12323e-17 0 6.12323e-17 -1 0 6.12323e-17 -1 -0 -1 -6.12323e-17 -0 -1 -6.12323e-17 -0 -1 -6.12323e-17 -0 -1 -6.12323e-17 -0 -1 -6.12323e-17 -0 -1 -6.12323e-17 0 -6.12323e-17 1 0 -6.12323e-17 1 0 -6.12323e-17 1 0 -6.12323e-17 1 0 -1 -6.12323e-17 0 -1 -6.12323e-17 0 -1 -6.12323e-17 0 6.12323e-17 -1 0 6.12323e-17 -1 1 0 0 1 0 0 1 0 0 0 -6.12323e-17 1 0 -6.12323e-17 1 0 -6.12323e-17 1 0 -6.12323e-17 1 -1 0 -0 -1 0 -0 -1 0 -0 -1 0 -0 -1 0 -0 -1 0 -0 0 -1 0 0 -1 0 0 -1 0 0 -1 0 0 -1 -6.12323e-17 0 1 -0 0 1 -0 -0 -1 -6.12323e-17 -0 -1 -6.12323e-17 0 0 1 0 0 1 0 0 1 0 0 1 1 0 0 0 0 -1 0 0 -1 0 1 6.12323e-17 0 1 6.12323e-17 0 0 -1 0 0 -1 0 0 -1 0 0 -1 -0 1 6.12323e-17 -0 1 6.12323e-17 0 0 -1 0 0 -1 0 -1 -6.12323e-17 0 0 -1 0 0 -1 0 0 -1 0 0 -1 -1 0 -0 -1 0 -0 0 0 1 0 0 1 1 0 0 </float_array>
          <technique_common>
            <accessor count="360" offset="0" source="#meshId0-bitangents-array" stride="3">
              <param name="X" type="float" />
              <param name="Y" type="float" />
              <param name="Z" type="float" />
            </accessor>
          </technique_common>
        </source>
        <source id="meshId0-tex0" name="meshId0-tex0">
          <float_array id="meshId0-tex0-array" count="720"> 0.934272 0.835465 0.934272 0.879523 0.912243 0.879523 0.912243 0.835465 0.912243 0.92751 0.912243 0.883451 0.934272 0.883451 0.934272 0.92751 0.991856 0.691505 0.991856 0.735564 0.969827 0.735564 0.969827 0.691505 0.9611 0.431296 0.917042 0.431296 0.917042 0.409266 0.9611 0.409266 0.398788 0.504358 0.420817 0.504358 0.420817 0.548416 0.398788 0.548416 0.59705 0.504358 0.59705 0.548416 0.773284 0.504358 0.773284 0.548416 0.795313 0.504358 0.795313 0.548416 0.399669 0.0005 0.421698 0.0005 0.421698 0.247227 0.399669 0.247227 0.597932 0.0005 0.597932 0.247227 0.774165 0.0005 0.774165 0.247227 0.796194 0.0005 0.796194 0.247227 0.421698 0.493954 0.399669 0.493954 0.597932 0.493954 0.774165 0.493954 0.796194 0.493954 0.965899 0.0005 0.965899 0.0225291 0.921841 0.0225291 0.921841 0.0005 0.965899 0.198762 0.921841 0.198762 0.965899 0.374996 0.921841 0.374996 0.965899 0.397025 0.921841 0.397025 0.331819 0.586816 0.331819 0.608845 0.0454396 0.608845 0.0454396 0.586816 0.331819 0.961312 0.331819 0.983341 0.0454396 0.983341 0.0454396 0.961312 0.00138121 0.608845 0.00138121 0.586816 0.0454396 0.785079 0.00138121 0.785079 0.00138121 0.961312 0.00138121 0.983341 0.864468 0.648318 0.864468 0.692376 0.578089 0.692376 0.578089 0.648318 0.816482 0.552345 0.816482 0.596403 0.530103 0.596403 0.530103 0.552345 0.538437 0.692376 0.534031 0.692376 0.534031 0.648318 0.841527 0.247227 0.801874 0.247227 0.801874 0.0005 0.841527 0.0005 0.841527 0.493953 0.801874 0.493953 0.486045 0.596403 0.486045 0.552345 0.490451 0.552345 0.445893 0.946046 0.423864 0.946046 0.423864 0.659666 0.445893 0.659666 0.0713968 0.946046 0.0493678 0.946046 0.0493678 0.659666 0.0713968 0.659666 0.423864 0.615608 0.445893 0.615608 0.24763 0.659666 0.24763 0.615608 0.0713968 0.615608 0.0493678 0.615608 0.475566 0.614727 0.519625 0.614727 0.519625 0.901106 0.475566 0.901106 0.864469 0.600331 0.864469 0.644389 0.578089 0.644389 0.578089 0.600331 0.519625 0.940759 0.519625 0.945164 0.475566 0.945164 0.908708 0.247227 0.869056 0.247227 0.869056 0.0005 0.908708 0.0005 0.908708 0.493953 0.869056 0.493953 0.534031 0.644389 0.534031 0.600331 0.538437 0.600331 0.991856 0.686919 0.969827 0.686919 0.969827 0.400539 0.991856 0.400539 0.854659 0.696304 0.898718 0.696304 0.898718 0.982683 0.854659 0.982683 0.667724 0.965028 0.667724 0.987058 0.381345 0.987058 0.381345 0.965028 0.912243 0.499559 0.956302 0.499559 0.956302 0.785939 0.912243 0.785939 0.346003 0.662714 0.390061 0.662714 0.390061 0.949093 0.346003 0.949093 0.452454 0.614727 0.474483 0.614727 0.474483 0.901107 0.452454 0.901107 0.974626 0.0005 0.996655 0.0005 0.996655 0.286879 0.974626 0.286879 0.797076 0.696304 0.841134 0.696304 0.841134 0.982683 0.797076 0.982683 0.198762 0.0005 0.374996 0.0005 0.374996 0.0445583 0.198762 0.0445583 0.0225292 0.0005 0.0225292 0.0445583 0.198762 0.58207 0.0225292 0.58207 0.0225292 0.538011 0.198762 0.538011 0.374996 0.58207 0.374996 0.538011 0.0005 0.291285 0.0005 0.0445583 0.0225292 0.291285 0.0005 0.538011 0.397025 0.291285 0.397025 0.538011 0.374996 0.291285 0.397025 0.0445583 0.198762 0.291285 0.000500149 0.608845 0.000500149 0.586816 0.000500149 0.785079 0.000500149 0.961312 0.0005 0.983341 0.841134 0.505239 0.797076 0.505239 0.797076 0.504358 0.841134 0.504358 0.970708 0.0005 0.970708 0.0225291 0.969827 0.0225291 0.969827 0.0005 0.970708 0.198762 0.969827 0.198762 0.970708 0.374996 0.969827 0.374996 0.970708 0.397025 0.969827 0.397025 0.9611 0.457253 0.917042 0.457253 0.917042 0.456372 0.9611 0.456372 0.917923 0.0005 0.917923 0.0225291 0.917042 0.0225291 0.917042 0.0005 0.917923 0.198762 0.917042 0.198762 0.917923 0.374996 0.917042 0.374996 0.917923 0.397025 0.917042 0.397025 0.404468 0.662714 0.404468 0.706772 0.403586 0.706772 0.403586 0.662714 0.423864 0.614727 0.445893 0.614727 0.24763 0.614727 0.0713968 0.614727 0.0493678 0.614727 0.956312 0.787478 0.956312 0.831537 0.955431 0.831537 0.955431 0.787478 0.854659 0.247227 0.854659 0.0005 0.859065 0.0005 0.859065 0.247227 0.854659 0.493953 0.859065 0.493953 0.845062 0.247227 0.845062 0.0005 0.849468 0.0005 0.849468 0.247227 0.845062 0.493953 0.849468 0.493953 0.398788 0.247227 0.398788 0.0005 0.398788 0.493954 0.974626 0.364805 0.974626 0.360399 0.975507 0.360399 0.975507 0.364805 0.913124 0.0005 0.913124 0.247226 0.912243 0.247226 0.912243 0.0005 0.913124 0.493953 0.912243 0.493953 0.974626 0.3792 0.974626 0.374795 0.975507 0.374795 0.975507 0.3792 0.797075 0.0005 0.797075 0.247227 0.974626 0.350409 0.974626 0.346003 0.975507 0.346003 0.975507 0.350409 0.864257 0.493953 0.864257 0.247227 0.865138 0.247227 0.865138 0.493953 0.864257 0.0005 0.865138 0.0005 0.917923 0.470768 0.917923 0.475173 0.917042 0.475173 0.917042 0.470768 0.797075 0.493954 0.935154 0.883451 0.935154 0.92751 0.451573 0.901107 0.451573 0.614727 0.452454 0.940759 0.451573 0.940759 0.452454 0.945165 0.451573 0.945165 0.841134 0.534031 0.797076 0.534031 0.797076 0.53315 0.841134 0.53315 0.0454396 0.984223 0.00138121 0.984223 0.331819 0.984223 0.917042 0.408385 0.9611 0.408385 0.446774 0.659666 0.446774 0.946046 0.446774 0.615608 0.9611 0.442857 0.917042 0.442857 0.917042 0.441976 0.9611 0.441976 0.996655 0.330938 0.996655 0.326532 0.997536 0.326532 0.997536 0.330938 0.997536 0.286879 0.997536 0.0005 0.992737 0.691505 0.992737 0.735564 0.992738 0.400539 0.992737 0.686919 0.991856 0.360887 0.992738 0.360887 0.991856 0.356481 0.992738 0.356481 0.926639 0.831537 0.926639 0.787478 0.92752 0.787478 0.92752 0.831537 0.0484865 0.659666 0.0484865 0.615608 0.0484865 0.946046 0.935154 0.835465 0.935154 0.879523 0.0454396 0.585935 0.331819 0.585935 0.00138121 0.585935 0.46117 0.946704 0.46117 0.902646 0.462051 0.902646 0.462051 0.946704 0.337287 0.987058 0.341692 0.987058 0.341692 0.987939 0.337287 0.987939 0.381345 0.987939 0.667724 0.987939 0.841134 0.519635 0.797076 0.519635 0.797076 0.518754 0.841134 0.518754 0.0484865 0.614727 0.519625 0.946046 0.475566 0.946046 0.991856 0.3556 0.992738 0.3556 0.941916 0.787478 0.941916 0.831537 0.941035 0.831537 0.941035 0.787478 0.0005 0.984223 0.53315 0.692376 0.53315 0.648318 0.452454 0.946046 0.451573 0.946046 0.912243 0.831537 0.912243 0.787478 0.913124 0.787478 0.913124 0.831537 0.997536 0.331819 0.996655 0.331819 0.485164 0.596403 0.485164 0.552345 0.446774 0.614727 0.9995 0.000500002 0.9995 0.0445583 0.998619 0.0445583 0.998619 0.000500002 0.336405 0.987939 0.336405 0.987058 0.53315 0.644389 0.53315 0.600331 0.000500149 0.585935 </float_array>
          <technique_common>
            <accessor count="360" offset="0" source="#meshId0-tex0-array" stride="2">
              <param name="S" type="float" />
              <param name="T" type="float" />
            </accessor>
          </technique_common>
        </source>
        <vertices id="meshId0-vertices">
          <input semantic="POSITION" source="#meshId0-positions" />
        </vertices>
        <polylist count="292" material="defaultMaterial">
          <input offset="0" semantic="VERTEX" source="#meshId0-vertices" />
          <input offset="0" semantic="NORMAL" source="#meshId0-normals" />
          <input offset="0" semantic="TANGENT" source="#meshId0-tangents" />
          <input offset="0" semantic="BINORMAL" source="#meshId0-bitangents" />
          <input offset="0" semantic="TEXCOORD" source="#meshId0-tex0" set="0" />
          <vcount>3 3 3 3 3 3 3 3 3 3 3 3 3 3 3 3 3 3 3 3 3 3 3 3 3 3 3 3 3 3 3 3 3 3 3 3 3 3 3 3 3 3 3 3 3 3 3 3 3 3 3 3 3 3 3 3 3 3 3 3 3 3 3 3 3 3 3 3 3 3 3 3 3 3 3 3 3 3 3 3 3 3 3 3 3 3 3 3 3 3 3 3 3 3 3 3 3 3 3 3 3 3 3 3 3 3 3 3 3 3 3 3 3 3 3 3 3 3 3 3 3 3 3 3 3 3 3 3 3 3 3 3 3 3 3 3 3 3 3 3 3 3 3 3 3 3 3 3 3 3 3 3 3 3 3 3 3 3 3 3 3 3 3 3 3 3 3 3 3 3 3 3 3 3 3 3 3 3 3 3 3 3 3 3 3 3 3 3 3 3 3 3 3 3 3 3 3 3 3 3 3 3 3 3 3 3 3 3 3 3 3 3 3 3 3 3 3 3 3 3 3 3 3 3 3 3 3 3 3 3 3 3 3 3 3 3 3 3 3 3 3 3 3 3 3 3 3 3 3 3 3 3 3 3 3 3 3 3 3 3 3 3 3 3 3 3 3 3 3 3 3 3 3 3 3 3 3 3 3 3 3 3 3 3 3 3 3 3 3 3 3 3 </vcount>
          <p>3 0 1 1 2 3 7 4 5 5 6 7 11 8 9 9 10 11 15 12 13 13 14 15 19 16 17 17 18 19 18 17 20 20 21 18 21 20 22 22 23 21 23 22 24 24 25 23 29 26 27 27 28 29 28 27 30 30 31 28 31 30 32 32 33 31 33 32 34 34 35 33 37 29 28 28 36 37 36 28 31 31 38 36 38 31 33 33 39 38 39 33 35 35 40 39 44 41 42 42 43 44 43 42 45 45 46 43 46 45 47 47 48 46 48 47 49 49 50 48 54 51 52 52 53 54 58 55 56 56 57 58 60 54 53 53 59 60 59 53 61 61 62 59 62 61 58 58 63 62 63 58 57 57 64 63 68 65 66 66 67 68 72 69 70 70 71 72 75 68 67 75 67 73 73 74 75 79 76 77 77 78 79 76 80 81 81 77 76 71 82 83 71 83 84 84 72 71 88 85 86 86 87 88 92 89 90 90 91 92 94 88 87 87 93 94 93 87 95 95 96 93 96 95 92 92 97 96 97 92 91 91 98 97 102 99 100 100 101 102 106 103 104 104 105 106 109 102 101 109 101 107 107 108 109 113 110 111 111 112 113 110 114 115 115 111 110 105 116 117 105 117 118 118 106 105 122 119 120 120 121 122 126 123 124 124 125 126 130 127 128 128 129 130 134 131 132 132 133 134 138 135 136 136 137 138 142 139 140 140 141 142 146 143 144 144 145 146 150 147 148 148 149 150 154 151 152 152 153 154 156 155 151 151 154 156 160 157 158 158 159 160 162 161 157 157 160 162 165 163 164 164 156 165 159 166 163 163 165 159 169 167 168 168 162 169 153 170 167 167 169 153 171 169 162 162 160 171 154 153 169 169 171 154 165 156 154 154 171 165 159 165 171 171 160 159 173 60 59 59 172 173 172 59 62 62 174 172 174 62 63 63 175 174 175 63 64 64 176 175 180 177 178 178 179 180 184 181 182 182 183 184 183 182 185 185 186 183 186 185 187 187 188 186 188 187 189 189 190 188 194 191 192 192 193 194 198 195 196 196 197 198 197 196 199 199 200 197 200 199 201 201 202 200 202 201 203 203 204 202 208 205 206 206 207 208 210 94 93 93 209 210 209 93 96 96 211 209 211 96 97 97 212 211 212 97 98 98 213 212 217 214 215 215 216 217 221 218 219 219 220 221 223 222 218 218 221 223 227 224 225 225 226 227 229 228 224 224 227 229 231 26 29 29 230 231 230 29 37 37 232 230 236 233 234 234 235 236 240 237 238 238 239 240 239 238 241 241 242 239 246 243 244 244 245 246 248 35 34 34 247 248 252 249 250 250 251 252 256 253 254 254 255 256 255 254 257 257 258 255 262 259 260 260 261 262 263 40 35 35 248 263 265 7 6 6 264 265 267 139 142 142 266 267 266 142 268 268 269 266 269 268 270 270 271 269 275 272 273 273 274 275 277 64 57 57 276 277 276 57 56 56 278 276 280 15 14 14 279 280 282 85 88 88 281 282 281 88 94 94 283 281 287 284 285 285 286 287 291 288 289 289 290 291 290 289 145 145 292 290 292 145 144 144 293 292 295 9 8 8 294 295 297 119 122 122 296 297 296 122 298 298 299 296 299 298 300 300 301 299 305 302 303 303 304 305 307 98 91 91 306 307 306 91 90 90 308 306 310 1 0 0 309 310 312 51 54 54 311 312 311 54 60 60 313 311 317 314 315 315 316 317 321 318 319 319 320 321 320 319 129 129 322 320 322 129 128 128 323 322 327 324 325 325 326 327 213 98 307 307 328 213 330 109 108 108 329 330 332 301 300 300 331 332 336 333 334 334 335 336 176 64 277 277 337 176 339 75 74 74 338 339 341 271 270 270 340 341 345 342 343 343 344 345 347 288 291 291 346 347 349 83 82 82 348 349 350 283 94 94 210 350 354 351 352 352 353 354 356 318 321 321 355 356 358 117 116 116 357 358 359 313 60 60 173 359 </p>
        </polylist>
      </mesh>
    </geometry>
  </library_geometries>
  <library_visual_scenes>
    <visual_scene id="root" name="root">
      <node id="Box001" name="Box001">
        <matrix>1 0 0 0 0 1 0 0 0 0 1 0 0 0 0 1</matrix>
        <instance_geometry url="#meshId0">
          <bind_material>
            <technique_common>
              <instance_material symbol="defaultMaterial" target="#DefaultMaterial" />
            </technique_common>
          </bind_material>
        </instance_geometry>
      </node>
    </visual_scene>
  </library_visual_scenes>
  <scene>
    <instance_visual_scene url="#root" />
  </scene>
</COLLADA>
